# xmcd
#
# Track frame offsets: 
#        150
#        11812
#        22722
#        35335
#        53152
#        70205
#        82415
#        92737
#        108475
#        118770
#        131280
#
# Disc length: 1970 seconds
#
# Revision: 2
# Processed by: cddbd v1.5.1PL0 Copyright (c) Steve Scherf et al.
# Submitted via: ExactAudioCopy v0.95b2
#
DISCID=8c07b00b
DTITLE=Buddy Guy - Left My Blues In San Francisco
DYEAR=1995
DGENRE=Blues
TTITLE0=Keep It To Myself
TTITLE1=Crazy Love
TTITLE2=I Suffer With The Blues
TTITLE3=When My Left Eye Jumps
TTITLE4=Buddy's Groove
TTITLE5=Goin' Home
TTITLE6=She Suits Me To A Tee
TTITLE7=Leave My Girl Alone
TTITLE8=Too Many Ways
TTITLE9=Mother-In-Law
TTITLE10=Every Girl I See
EXTD=
EXTT0=
EXTT1=
EXTT2=
EXTT3=
EXTT4=
EXTT5=
EXTT6=
EXTT7=
EXTT8=
EXTT9=
EXTT10=
PLAYORDER=
